<svg id="Layer_1" data-name="Layer 1" xmlns="http://www.w3.org/2000/svg" xmlns:xlink="http://www.w3.org/1999/xlink" viewBox="0 0 32 28"><defs><style>.cls-1{fill:none;clip-rule:evenodd;}.cls-2{clip-path:url(#clip-path);}.cls-3{fill:#fff3f9;}.cls-3,.cls-4,.cls-5,.cls-6,.cls-7,.cls-8{fill-rule:evenodd;}.cls-4{fill:#ff46aa;}.cls-5{fill:#ff90cc;}.cls-6{fill:#ff30a0;}.cls-7{fill:#ee006b;}.cls-8{fill:#f07;}</style><clipPath id="clip-path"><path class="cls-1" d="M23.14,0,8.9,0A1.74,1.74,0,0,0,7.39.9L.24,13.13a1.72,1.72,0,0,0,0,1.74l7.1,12.26A1.76,1.76,0,0,0,8.86,28L23.1,28a1.74,1.74,0,0,0,1.51-.87l7.15-12.23a1.72,1.72,0,0,0,0-1.74L24.67.87A1.76,1.76,0,0,0,23.14,0Z"/></clipPath></defs><title>magenta_icon_magetna_icon</title><g class="cls-2"><g id="Magenta-Icon"><g id="Group-3"><polygon id="Fill-1" class="cls-3" points="26.39 14 10.84 5.09 10.84 22.91 26.39 14"/></g><g id="Group-6"><polygon id="Fill-4" class="cls-4" points="26.39 14 24.16 28 10.84 22.91 26.39 14"/></g><g id="Group-9"><polygon id="Fill-7" class="cls-5" points="10.84 5.09 -0.27 14 10.84 22.91 10.84 5.09"/></g><g id="Group-12"><polygon id="Fill-10" class="cls-5" points="10.84 5.09 24.16 0 26.39 14 10.84 5.09"/></g><g id="Group-15"><polygon id="Fill-13" class="cls-6" points="10.84 22.91 7.89 27.97 -0.27 14 10.84 22.91"/></g><g id="Group-18"><polygon id="Fill-16" class="cls-7" points="10.84 22.91 7.89 27.97 24.16 28 10.84 22.91"/></g><g id="Group-21"><polygon id="Fill-19" class="cls-8" points="26.39 14 32.27 14 24.16 0 26.39 14"/></g><g id="Group-24"><polygon id="Fill-22" class="cls-7" points="26.39 14 32.27 14 24.16 28 26.39 14"/></g><g id="Group-27"><polygon id="Fill-25" class="cls-8" points="10.84 5.09 7.89 0.03 24.16 0 10.84 5.09"/></g><g id="Group-30"><polygon id="Fill-28" class="cls-6" points="10.84 5.09 7.89 0.03 -0.27 14 10.84 5.09"/></g></g></g></svg>